<?xml version="1.0" encoding="UTF-8"?>
<svg xmlns="http://www.w3.org/2000/svg" version="1.1" viewBox="0 0 140 32">
  <defs>
    <style>
      .cls-1 {
        isolation: isolate;
        opacity: .2;
      }

      .cls-2 {
        fill: #fff;
      }
    </style>
  </defs>
  <!-- Generator: Adobe Illustrator 28.6.0, SVG Export Plug-In . SVG Version: 1.2.0 Build 709)  -->
  <g>
    <g id="Layer_1">
      <g id="b1be508a-0b30-4ea7-b6dd-1284e20da7a1">
        <rect class="cls-1" y="0" width="140" height="32" rx="5.3" ry="5.3"/>
        <path class="cls-2" d="M77.6,20.1c1,0,1.8-.8,1.8-1.8s-.8-1.8-1.8-1.8-1.8.8-1.8,1.8.8,1.8,1.8,1.8ZM77.6,15.5c1,0,1.8-.8,1.8-1.8s-.8-1.8-1.8-1.8-1.8.8-1.8,1.8.8,1.8,1.8,1.8ZM82.3,20.1c1,0,1.8-.8,1.8-1.8s-.8-1.8-1.8-1.8-1.8.8-1.8,1.8.8,1.8,1.8,1.8ZM82.3,15.5c1,0,1.8-.8,1.8-1.8s-.8-1.8-1.8-1.8-1.8.8-1.8,1.8.8,1.8,1.8,1.8ZM79.9,6.7c5,0,9.3,4.3,9.3,9.3s-4.2,9.3-9.3,9.3-9.3-4.3-9.3-9.3,4.2-9.3,9.3-9.3ZM79.9,9.2c-3.7,0-6.8,2.9-6.8,6.7s3,6.9,6.8,6.9,6.8-3.2,6.8-6.9-3-6.7-6.8-6.7ZM99.7,21.5h2.9q0,0,.2-.1l1-3.6.9,3.6q0,.1.2.1h2.9c0,0,.2,0,.2-.1l2-7.6v7.5c0,.1,0,.2.2.2h3.2c0,0,.2,0,.2-.2v-7.9c0-.1,0-.2-.2-.2h-6.2c0,0-.2,0-.2.2l-.7,3.6-.7-3.6c0-.1,0-.2-.2-.2h-3.2c0,0-.2,0-.2.2l-.7,3.6-.7-3.6c0-.1,0-.2-.2-.2h-4.7v-2.7c0-.1,0-.2-.2-.1l-3,1c0,0-.2.1-.2.2v1.3c0,.3-.2.5-.5.5h-.8c0,0-.2,0-.2.2v2.2c0,.1,0,.2.2.2h1.1v2.7c0,1.9.8,3,3.1,3s1.6-.1,2-.3c0,0,.2-.1.2-.3v-2.1c0-.1,0-.2-.3-.1-.2,0-.4.1-.6.1-.6,0-.8-.2-.8-1v-2.1h1.4c0,0,.2,0,.2-.2v-2l2.1,7.6c0,.1,0,.1.2.1h0ZM110.1,12.4c0,.1,0,.2.2.2h3.2c0,0,.2,0,.2-.2v-1.8c0-.1,0-.2-.2-.2h-3.2c0,0-.2,0-.2.2v1.8ZM114.3,21.4c0,.1,0,.2.2.2h3.2c0,0,.2,0,.2-.2v-10.7c0-.1,0-.2-.2-.2h-3.2c0,0-.2,0-.2.2v10.7h0ZM118.6,21.4c0,.1,0,.2.2.2h3.2c0,0,.2,0,.2-.2v-7.9c0-.1,0-.2-.2-.2h-3.2c0,0-.2,0-.2.2v7.9h0ZM118.6,12.4c0,.1,0,.2.2.2h3.2c0,0,.2,0,.2-.2v-1.8c0-.1,0-.2-.2-.2h-3.2c0,0-.2,0-.2.2v1.8h0ZM122.7,17.5c0,2.4,1.9,4.3,4.6,4.3s4.6-1.8,4.6-4.3v-.2c0-2.4-1.9-4.2-4.6-4.2s-4.6,1.8-4.6,4.2v.2ZM126.2,17.5h0c0-1.3.5-1.7,1.2-1.7s1.2.4,1.2,1.6h0c0,1.3-.5,1.7-1.2,1.7s-1.2-.5-1.2-1.6Z"/>
        <g>
          <path class="cls-2" d="M8,11.7h2.9c1.7,0,2.7.8,2.7,2.3s-1,2.3-2.7,2.3h-1.9v2.6h-1v-7.2ZM9,12.4v3h1.8c1.2,0,1.8-.6,1.8-1.5s-.6-1.5-1.8-1.5h-1.8Z"/>
          <path class="cls-2" d="M13.9,16h0c0-2,1.2-3.1,2.9-3.1s2.8,1.1,2.8,3h0c0,2-1.2,3.1-2.9,3.1s-2.9-1.1-2.9-3ZM18.7,16h0c0-1.5-.8-2.3-1.9-2.3s-1.9.8-1.9,2.2h0c0,1.5.7,2.3,1.9,2.3s1.9-.8,1.9-2.2Z"/>
          <path class="cls-2" d="M19.7,13h1l1.2,4.4c0,.2.1.5.1.6s0,0,0,0,0,0,0,0c0-.2,0-.4.1-.6l1.4-4.4h1l1.4,4.4c0,.2.1.5.1.6s0,0,0,0,0,0,0,0c0-.2,0-.4.1-.6l1.2-4.4h1l-1.7,5.9h-1.1l-1.4-4.3c0-.3-.2-.6-.2-.8s0,0,0,0,0,0,0,0c0,.2,0,.5-.2.8l-1.4,4.3h-1.1l-1.6-5.9Z"/>
          <path class="cls-2" d="M28.5,16h0c0-2,1.1-3.1,2.7-3.1s2.6.9,2.6,2.8v.5h-4.4c0,1.4,1.1,2,2.4,2s1.5-.3,1.9-.7v.8c-.3.3-.9.6-2,.6-2,0-3.2-1.1-3.2-3ZM29.4,15.5h3.4c0-1.2-.7-1.8-1.6-1.8s-1.6.6-1.8,1.8Z"/>
          <path class="cls-2" d="M34.5,13h.9v2.1c.2-1.6.9-2.2,2-2.2s.6,0,.7.1v.9c-.2-.2-.6-.2-.9-.2-1,0-1.8.7-1.8,2.3v2.9h-.9v-5.9Z"/>
          <path class="cls-2" d="M38,16h0c0-2,1.1-3.1,2.7-3.1s2.6.9,2.6,2.8v.5h-4.4c0,1.4,1.1,2,2.4,2s1.5-.3,1.9-.7v.8c-.3.3-.9.6-2,.6-2,0-3.2-1.1-3.2-3ZM38.9,15.5h3.4c0-1.2-.7-1.8-1.6-1.8s-1.6.6-1.8,1.8Z"/>
          <path class="cls-2" d="M43.8,16h0c0-2,1.1-3.1,2.6-3.1s1.9.7,2.2,2v-3.9h.9v7.9h-.9v-1.9c-.2,1.3-1,2-2.2,2s-2.5-1.1-2.5-3ZM48.6,16h0c0-1.5-.8-2.3-1.9-2.3s-1.9.8-1.9,2.2h0c0,1.5.8,2.3,1.9,2.3s1.9-.8,1.9-2.2Z"/>
          <path class="cls-2" d="M53.2,17v1.9h-.9v-7.9h.9v3.9c.2-1.3,1-2,2.2-2s2.5,1.1,2.5,3h0c0,2-1.1,3.1-2.5,3.1s-2-.7-2.2-2ZM57,16h0c0-1.5-.8-2.3-1.9-2.3s-1.9.8-1.9,2.2h0c0,1.5.8,2.3,1.9,2.3s1.9-.8,1.9-2.2Z"/>
          <path class="cls-2" d="M59,20.2c.4,0,.8-.2,1.1-.9v-.3c.1,0-2.3-6-2.3-6h1l1.7,4.3c.1.3.2.5.2.7s0,0,0,0,0,0,0,0c0-.2,0-.5.2-.7l1.7-4.3h1l-2.5,6.4c-.5,1.3-1.1,1.6-1.9,1.6s-.7,0-.9-.2v-.7c.2.1.5.2.7.2Z"/>
        </g>
      </g>
    </g>
  </g>
</svg>